<svg xmlns="http://www.w3.org/2000/svg" viewBox="0 0 2715 462" width="2715" height="462">
	<style>
		tspan { white-space:pre }
		.shp0 { fill: #ffffff } 
		.shp1 { fill: #71c7d1 } 
		.shp2 { fill: #2675bc } 
	</style>
	<path id="Layer" fill-rule="evenodd" class="shp0" d="M869.29 280.18L805.65 292.79L830.7 103.9L832.35 91.65L878.43 91.65L860.14 232.63L876.05 229.71L896.35 77.02L951.21 77.02L915.73 345.82L860.87 345.82L869.29 280.18ZM1045.01 79.03L1033.86 109.57L1111.02 109.57L1106.09 147.24L1097.13 147.24L1088.71 212.89L1049.03 264.45L1088.71 345.46L1024.53 345.46L1009.9 314.37L985.95 345.82L925.79 345.82L987.05 265.91L950.47 187.1L1011 187.1L1025.26 216.36L1042.63 193.5L1048.49 147.24L1019.41 147.24L1009.35 175.22L949.38 175.22L981.38 86.71L985.03 77.39L1045.01 79.03ZM1137.17 303.95L1148.33 218.92L1410.54 218.92L1399.57 303.95L1414.2 303.95L1408.71 339.06L1118.52 339.06L1123.27 303.95L1137.17 303.95ZM1254.75 166.62L1221.1 211.42L1136.44 211.42L1170.27 166.62L1254.75 166.62ZM1250.18 80.5L1262.43 123.29L1321.49 123.29L1339.78 91.65L1345.99 80.86L1422.25 80.86L1399.57 123.29L1436.14 123.29L1431.39 158.03L1143.57 158.03L1148.33 123.29L1184.9 123.29L1173.01 80.5L1250.18 80.5ZM1192.94 303.95L1212.33 303.95L1218.54 256.22L1198.43 256.22L1192.94 303.95ZM1261.7 303.95L1278.34 303.95L1284.74 256.22L1267.91 256.22L1261.7 303.95ZM1399.57 166.62L1425.72 211.42L1340.69 211.42L1314.54 166.62L1399.57 166.62ZM1333.93 256.22L1327.53 303.95L1346.73 303.95L1353.31 256.22L1333.93 256.22ZM1620.28 302.49L1627.23 272.31L1464.12 272.31L1518.98 119.99L1484.23 119.99L1489.17 83.42L1753.03 83.42L1748.28 119.99L1581.7 119.99L1571.82 146.51L1721.03 146.51L1688.67 302.49L1738.41 302.49L1733.65 339.06L1442.54 339.06L1447.3 302.49L1620.28 302.49ZM1542.75 235.74L1636.19 235.74L1648.99 183.08L1560.67 183.08L1542.75 235.74ZM1816.3 121.82L1820.87 87.81L1820.87 77.39L1877.74 77.39L1871.89 121.82L1885.42 121.82L1881.03 157.3L1867.14 157.3L1862.57 193.87L1876.83 189.48L1871.53 228.25L1857.26 232.63L1845.93 321.14C1845.73 322.86 1845.39 324.56 1844.91 326.22C1844.42 327.89 1843.8 329.5 1843.03 331.06C1842.27 332.61 1841.38 334.1 1840.36 335.5C1839.34 336.9 1838.21 338.22 1836.97 339.42C1835.77 340.61 1834.46 341.68 1833.05 342.6C1831.64 343.52 1830.14 344.29 1828.57 344.9C1827 345.51 1825.37 345.96 1823.71 346.24C1822.05 346.52 1820.36 346.62 1818.68 346.55L1763.82 346.55L1790.89 312.91L1798.93 252.02L1776.26 259.15L1781.56 220.02L1803.69 212.89L1811 158.03L1789.24 158.03L1793.63 122.55L1816.3 121.82ZM1879.21 234.65L1889.99 153.64L1979.41 153.64L1997.7 127.13L1962.95 127.13L1950.7 141.94L1892.01 141.94L1937.9 87.08L1944.49 78.49L2003 78.49L1989.1 95.31L2062.25 95.31L2057.86 128.22L2039.57 153.64L2069.38 153.64L2057.86 234.65L2069.38 234.65L2064.99 268.11L1997.88 268.11L2052.74 346.55L1996.78 346.55L1960.21 289.87L1912.49 344.73L1850.68 344.73L1919.8 267.74L1861.83 267.74L1866.41 234.28L1879.21 234.65ZM1930.77 181.98L1923.82 234.65L1945.03 234.65L1951.98 181.98L1930.77 181.98ZM1999.89 180.89L1992.94 233L2014.52 233L2021.47 180.15L1999.89 180.89ZM2387 84.52L2382.43 119.99L2282.95 119.99L2271.07 211.42L2383.53 211.42L2378.95 246.9L2266.31 246.9L2253.33 345.46L2187.32 345.46L2200.12 246.9L2087.85 246.9L2092.42 211.42L2204.14 211.42L2216.03 119.99L2117.29 119.99L2121.67 84.52L2387 84.52ZM2193.9 198.07L2134.47 198.07L2129.72 134.26L2189.15 134.26L2193.9 198.07ZM2308.01 134.26L2367.43 134.26L2345.86 198.07L2286.43 198.07L2308.01 134.26ZM2690.91 212.15L2674.09 338.69L2418.09 338.69L2434.73 212.15L2690.91 212.15ZM2671.34 92.02L2696.03 198.07L2639.71 198.07L2638.25 192.41L2437.1 192.41L2440.58 165.53L2490.5 86.71L2496.17 78.12L2568.03 78.12L2515.91 158.39L2630.38 158.39L2615.02 92.38L2671.34 92.02ZM2613.38 303.22L2620.51 247.26L2495.43 247.26L2488.12 303.22L2613.38 303.22Z" />
	<path id="Layer" class="shp1" d="M223.15 144.68C220.7 149.37 218.1 153.97 215.34 158.48C212.59 162.98 209.68 167.4 206.62 171.71C203.56 176.02 200.36 180.22 197.02 184.32C193.67 188.41 190.19 192.39 186.58 196.25C183.05 199.86 179.46 203.42 175.82 206.93C172.18 210.43 168.48 213.87 164.73 217.26C160.98 220.65 157.18 223.97 153.32 227.23C149.46 230.5 145.55 233.7 141.59 236.84C146.06 239.4 150.47 242.05 154.83 244.78C159.18 247.52 163.48 250.35 167.73 253.26C171.97 256.18 176.15 259.18 180.27 262.26C184.38 265.35 188.44 268.52 192.43 271.77C196.33 275.28 200.11 278.91 203.77 282.67C207.44 286.43 210.97 290.3 214.38 294.29C217.79 298.28 221.07 302.38 224.21 306.58C227.35 310.79 230.35 315.09 233.21 319.49C235.81 314.79 238.54 310.15 241.37 305.58C244.21 301.01 247.15 296.51 250.2 292.09C253.26 287.66 256.41 283.31 259.68 279.04C262.94 274.77 266.31 270.57 269.78 266.46C273.23 262.73 276.81 259.11 280.49 255.6C284.17 252.09 287.97 248.7 291.86 245.43C295.76 242.16 299.76 239.02 303.85 236C307.94 232.98 312.13 230.09 316.41 227.33C311.62 224.87 306.91 222.26 302.29 219.5C297.66 216.74 293.14 213.83 288.7 210.77C284.27 207.71 279.94 204.51 275.72 201.18C271.49 197.84 267.38 194.36 263.38 190.76C259.77 187.16 256.22 183.49 252.73 179.76C249.25 176.04 245.83 172.25 242.47 168.41C239.12 164.57 235.83 160.67 232.61 156.71C229.39 152.76 226.23 148.74 223.15 144.68L223.15 144.68Z" />
	<path id="Layer" class="shp1" d="M448.43 176.13C435.65 127.68 407.2 84.81 367.51 54.23C327.81 23.64 279.11 7.05 229 7.05C178.89 7.05 130.19 23.64 90.49 54.23C50.8 84.81 22.35 127.68 9.57 176.13C31.88 123.29 132.45 68.43 192.43 63.49C202.1 62.14 211.86 61.66 221.62 62.04C231.37 62.43 241.07 63.68 250.6 65.78C260.13 67.88 269.46 70.83 278.47 74.58C287.48 78.34 296.13 82.89 304.34 88.18C333.78 107.56 335.42 122.92 335.42 122.92L291.9 177.78L448.43 177.78L446.23 174.49L448.43 176.13Z" />
	<path id="Layer" class="shp2" d="M9.57 287.86C22.35 336.31 50.8 379.18 90.49 409.76C130.19 440.35 178.89 456.93 229 456.93C279.11 456.93 327.81 440.35 367.51 409.76C407.2 379.18 435.65 336.31 448.43 287.86C425.75 339.97 325.37 396.47 265.57 400.68C255.9 402.01 246.13 402.49 236.37 402.09C226.61 401.69 216.91 400.42 207.38 398.3C197.85 396.19 188.53 393.22 179.52 389.45C170.51 385.68 161.86 381.12 153.66 375.81C124.41 356.61 122.76 341.07 122.76 341.07L166.1 286.21L9.57 286.21L11.58 289.5L9.57 287.86Z" />
</svg>