<svg xmlns="http://www.w3.org/2000/svg" viewBox="0 0 2604 459" width="2604" height="459">
	<style>
		tspan { white-space:pre }
		.shp0 { fill: #ffffff } 
		.shp1 { fill: #71c7d1 } 
		.shp2 { fill: #2675bc } 
	</style>
	<path id="Layer" fill-rule="evenodd" class="shp0" d="M762.23 279.89L698.58 292.42L723.87 103.58L725.53 91.33L771.61 91.39L753.15 232.34L769.06 229.43L789.55 76.79L844.41 76.86L808.59 345.58L753.73 345.51L762.23 279.89ZM938.21 78.99L927.02 109.51L1004.18 109.61L999.2 147.26L990.24 147.25L981.74 212.88L942 264.39L981.57 345.44L917.39 345.36L902.8 314.25L878.81 345.67L818.65 345.6L880.01 265.77L843.54 186.92L904.06 187L918.29 216.27L935.69 193.44L941.6 147.19L912.52 147.15L902.43 175.11L842.45 175.04L874.57 86.59L878.23 77.27L938.21 78.99ZM1030.08 303.99L1041.35 218.99L1303.56 219.32L1292.48 304.33L1307.11 304.35L1301.58 339.44L1011.39 339.08L1016.19 303.98L1030.08 303.99ZM1147.84 166.83L1114.13 211.59L1029.47 211.48L1063.36 166.73L1147.84 166.83ZM1143.37 80.71L1155.57 123.51L1214.63 123.59L1232.96 91.98L1239.19 81.2L1315.44 81.3L1292.71 123.68L1329.28 123.73L1324.49 158.46L1036.67 158.1L1041.47 123.37L1078.04 123.41L1066.21 80.61L1143.37 80.71ZM1085.86 304.07L1105.24 304.09L1111.52 256.38L1091.4 256.35L1085.86 304.07ZM1154.61 304.15L1171.25 304.17L1177.71 256.46L1160.89 256.44L1154.61 304.15ZM1292.66 167.02L1318.75 211.85L1233.72 211.74L1207.63 166.91L1292.66 167.02ZM1226.9 256.52L1220.44 304.24L1239.64 304.26L1246.28 256.55L1226.9 256.52ZM1513.19 303.15L1520.18 272.99L1357.07 272.78L1412.12 120.55L1377.38 120.5L1382.36 83.94L1646.23 84.28L1641.43 120.84L1474.84 120.63L1464.94 147.12L1614.15 147.31L1581.58 303.23L1631.32 303.3L1626.52 339.86L1335.41 339.49L1340.21 302.93L1513.19 303.15ZM1435.75 236.31L1529.19 236.43L1542.05 183.79L1453.73 183.68L1435.75 236.31ZM1709.45 122.75L1714.06 88.75L1714.07 78.33L1770.94 78.4L1765.04 122.82L1778.57 122.84L1774.13 158.3L1760.24 158.29L1755.62 194.85L1769.89 190.48L1764.53 229.23L1750.27 233.6L1738.82 322.08C1738.62 323.8 1738.28 325.5 1737.79 327.17C1737.31 328.83 1736.68 330.44 1735.91 332C1735.15 333.55 1734.25 335.04 1733.23 336.44C1732.21 337.84 1731.08 339.15 1729.83 340.35C1728.64 341.54 1727.33 342.6 1725.91 343.52C1724.5 344.44 1723 345.21 1721.43 345.82C1719.86 346.43 1718.23 346.88 1716.57 347.15C1714.91 347.43 1713.22 347.53 1711.54 347.46L1656.68 347.39L1683.79 313.78L1691.91 252.91L1669.23 260.01L1674.58 220.89L1696.71 213.79L1704.1 158.95L1682.34 158.92L1686.77 123.45L1709.45 122.75ZM1772.21 235.64L1783.1 154.66L1872.51 154.77L1890.83 128.28L1856.09 128.24L1843.82 143.03L1785.12 142.96L1831.09 88.17L1837.68 79.58L1896.2 79.66L1882.28 96.46L1955.42 96.55L1950.99 129.46L1932.67 154.85L1962.48 154.89L1950.86 235.87L1962.38 235.88L1957.95 269.34L1890.84 269.25L1945.6 347.76L1889.64 347.69L1853.14 290.96L1805.35 345.75L1743.54 345.67L1812.76 268.79L1754.79 268.71L1759.41 235.26L1772.21 235.64ZM1823.84 183.05L1816.82 235.7L1838.03 235.73L1845.05 183.08L1823.84 183.05ZM1892.96 182.04L1885.95 234.14L1907.52 234.17L1914.54 181.34L1892.96 182.04ZM2280.19 86.18L2275.57 121.64L2176.1 121.52L2164.1 212.92L2276.56 213.06L2271.94 248.53L2159.3 248.38L2146.19 346.92L2080.18 346.83L2093.1 248.3L1980.83 248.16L1985.45 212.69L2097.17 212.83L2109.17 121.43L2010.43 121.31L2014.87 85.84L2280.19 86.18ZM2086.95 199.47L2027.52 199.4L2022.85 135.58L2082.28 135.66L2086.95 199.47ZM2201.13 135.81L2260.56 135.88L2238.9 199.67L2179.48 199.59L2201.13 135.81ZM2583.94 214.18L2566.95 340.69L2310.95 340.36L2327.75 213.86L2583.94 214.18ZM2564.52 94.04L2589.08 200.11L2532.76 200.04L2531.3 194.37L2330.16 194.12L2333.67 167.24L2383.69 88.5L2389.36 79.92L2461.23 80.01L2409.01 160.21L2523.48 160.35L2508.2 94.33L2564.52 94.04ZM2506.29 305.14L2513.49 249.2L2388.42 249.04L2381.03 304.98L2506.29 305.14Z" />
	<path id="Layer" class="shp1" d="M226.26 143.72C223.81 148.4 221.2 153 218.44 157.51C215.68 162.01 212.76 166.42 209.7 170.73C206.64 175.03 203.43 179.23 200.08 183.32C196.73 187.41 193.24 191.38 189.63 195.24C186.09 198.85 182.5 202.4 178.86 205.9C175.21 209.4 171.51 212.84 167.76 216.22C164 219.6 160.19 222.92 156.33 226.18C152.47 229.44 148.56 232.63 144.59 235.77C149.05 238.33 153.46 240.99 157.82 243.73C162.17 246.47 166.47 249.3 170.7 252.22C174.94 255.14 179.12 258.15 183.23 261.24C187.35 264.33 191.4 267.5 195.38 270.76C199.28 274.27 203.06 277.91 206.71 281.67C210.37 285.43 213.9 289.31 217.31 293.31C220.71 297.3 223.98 301.4 227.11 305.61C230.25 309.82 233.25 314.12 236.1 318.53C238.71 313.83 241.44 309.2 244.28 304.63C247.12 300.07 250.07 295.57 253.13 291.15C256.19 286.73 259.35 282.38 262.62 278.11C265.89 273.84 269.26 269.66 272.74 265.55C276.2 261.82 279.78 258.21 283.46 254.7C287.15 251.2 290.95 247.82 294.85 244.55C298.75 241.29 302.75 238.15 306.85 235.13C310.95 232.12 315.14 229.23 319.42 226.48C314.63 224.02 309.92 221.4 305.31 218.63C300.69 215.87 296.16 212.95 291.73 209.89C287.31 206.83 282.98 203.62 278.76 200.28C274.54 196.94 270.43 193.46 266.43 189.85C262.83 186.24 259.28 182.57 255.8 178.84C252.32 175.11 248.91 171.32 245.56 167.47C242.21 163.63 238.92 159.72 235.71 155.76C232.49 151.8 229.34 147.79 226.26 143.72L226.26 143.72Z" />
	<path id="Layer" class="shp1" d="M451.5 175.46C438.79 126.99 410.39 84.09 370.74 53.46C331.08 22.83 282.4 6.18 232.29 6.12C182.18 6.05 133.46 22.58 93.72 53.11C53.99 83.64 25.48 126.46 12.65 174.9C35.02 122.09 135.66 67.36 195.65 62.5C205.32 61.17 215.08 60.7 224.84 61.09C234.59 61.49 244.29 62.75 253.82 64.86C263.34 66.98 272.67 69.94 281.67 73.7C290.68 77.47 299.33 82.03 307.52 87.33C336.94 106.75 338.57 122.11 338.57 122.11L294.98 176.9L451.5 177.1L449.31 173.81L451.5 175.46Z" />
	<path id="Layer" class="shp2" d="M12.5 286.61C25.22 335.08 53.62 377.97 93.27 408.61C132.93 439.24 181.61 455.89 231.72 455.95C281.83 456.01 330.55 439.49 370.28 408.96C410.02 378.43 438.53 335.6 451.36 287.17C428.62 339.25 328.16 395.62 268.36 399.75C258.69 401.07 248.91 401.53 239.16 401.12C229.4 400.71 219.7 399.43 210.17 397.3C200.65 395.17 191.32 392.2 182.32 388.41C173.32 384.63 164.67 380.06 156.48 374.74C127.25 355.51 125.63 339.96 125.63 339.96L169.03 285.17L12.51 284.97L14.51 288.26L12.5 286.61Z" />
</svg>