<?xml version="1.0" standalone="no"?><!DOCTYPE svg PUBLIC "-//W3C//DTD SVG 1.1//EN" "http://www.w3.org/Graphics/SVG/1.1/DTD/svg11.dtd"><svg t="1601106272009" class="icon" viewBox="0 0 1024 1024" version="1.1" xmlns="http://www.w3.org/2000/svg" p-id="2122" xmlns:xlink="http://www.w3.org/1999/xlink" width="200" height="200"><defs><style type="text/css"></style></defs><path d="M519.3728 334.6432c-5.3248 10.6496-11.4688 20.8896-17.6128 30.72-6.144 10.24-12.6976 20.0704-19.2512 29.9008-6.9632 9.4208-14.336 18.8416-21.7088 28.2624-7.3728 9.0112-15.1552 18.0224-23.3472 26.624-7.7824 8.192-15.9744 15.9744-24.1664 23.7568-8.192 8.192-16.384 15.5648-24.576 23.3472-8.6016 7.3728-17.2032 15.1552-25.8048 22.1184-8.6016 7.3728-17.2032 14.7456-26.2144 21.7088 9.8304 5.7344 20.0704 11.4688 29.4912 17.6128 9.8304 6.144 19.6608 12.6976 29.0816 19.2512 9.4208 6.5536 18.8416 13.1072 27.8528 20.0704 9.4208 6.9632 18.432 13.9264 27.4432 21.2992 8.6016 7.7824 17.2032 15.9744 25.3952 24.576 8.192 8.192 15.9744 16.7936 23.7568 25.8048a462.92992 462.92992 0 0 1 42.1888 56.5248c5.7344-10.6496 11.8784-20.8896 18.432-31.1296 6.144-10.24 12.6976-20.48 19.6608-30.3104 6.9632-9.8304 13.9264-19.6608 21.2992-29.0816 7.3728-9.8304 14.7456-19.2512 22.528-28.2624 7.7824-8.192 15.5648-16.384 24.1664-24.1664 8.192-8.192 16.384-15.5648 25.3952-22.9376 8.6016-7.3728 17.6128-14.336 26.624-21.2992 9.4208-6.5536 18.8416-13.1072 28.2624-19.2512-10.6496-5.3248-21.2992-11.4688-31.5392-17.6128-10.24-6.144-20.48-12.6976-30.3104-19.6608-10.24-6.5536-19.6608-13.9264-29.4912-21.2992-9.4208-7.3728-18.432-15.1552-27.4432-23.3472-8.192-8.192-15.9744-16.384-23.7568-24.576-7.7824-8.6016-15.5648-16.7936-22.9376-25.3952-7.7824-8.6016-15.1552-17.6128-22.1184-26.2144-7.3728-9.0112-14.336-18.0224-21.2992-27.0336z" fill="#71C7D1" p-id="2123"></path><path d="M1002.66666667 405.0944a508.3136 508.3136 0 0 0-181.4528-273.2032A508.43648 508.43648 0 0 0 511.14666667 26.2144c-112.2304 0-221.184 37.2736-310.0672 105.6768A508.3136 508.3136 0 0 0 19.62666667 405.0944C69.59786667 286.72 294.87786667 163.84 429.22666667 152.7808c21.7088-2.8672 43.4176-4.096 65.536-3.2768 21.7088 0.8192 43.4176 3.6864 64.7168 8.6016 21.2992 4.5056 42.1888 11.0592 62.6688 19.6608 20.0704 8.192 39.3216 18.432 57.7536 30.3104 65.9456 43.4176 69.632 77.824 69.632 77.824l-97.4848 122.88H1002.66666667l-4.9152-7.3728 4.9152 3.6864z" fill="#71C7D1" p-id="2124"></path><path d="M21.33333333 635.73333333c28.672 108.544 92.16 204.3904 181.4528 273.2032 88.8832 68.4032 197.8368 105.6768 310.0672 105.6768s221.184-37.2736 310.0672-105.6768A508.3136 508.3136 0 0 0 1004.37333333 635.73333333c-50.7904 116.736-275.6608 243.3024-409.6 252.7232-21.7088 2.8672-43.4176 4.096-65.536 3.2768a346.112 346.112 0 0 1-64.7168-8.6016c-21.2992-4.9152-42.1888-11.4688-62.6688-19.6608-20.0704-8.6016-39.3216-18.8416-57.7536-30.72-65.536-43.008-69.2224-77.824-69.2224-77.824l97.0752-122.88H21.33333333l4.5056 7.3728L21.33333333 635.73333333z" fill="#2675BC" p-id="2125"></path></svg>